<svg xmlns="http://www.w3.org/2000/svg" viewBox="0 0 512 512">
  <!-- Background circle -->
  <circle cx="256" cy="256" r="254" fill="#0f0f12"/>
  <!-- Red ring -->
  <circle cx="256" cy="256" r="248" fill="none" stroke="#cc2200" stroke-width="6"/>
  <!-- D - left -->
  <rect x="118" y="148" width="18" height="216" fill="#f2f2f2"/>
  <rect x="118" y="148" width="80" height="18" fill="#f2f2f2"/>
  <rect x="118" y="346" width="80" height="18" fill="#f2f2f2"/>
  <path d="M136 157 Q220 157 220 256 Q220 355 136 355" fill="none" stroke="#f2f2f2" stroke-width="18"/>
  <!-- I - center-left -->
  <rect x="232" y="148" width="48" height="18" fill="#f2f2f2"/>
  <rect x="232" y="346" width="48" height="18" fill="#f2f2f2"/>
  <rect x="247" y="148" width="18" height="216" fill="#f2f2f2"/>
  <!-- D - center-right -->
  <rect x="298" y="148" width="18" height="216" fill="#f2f2f2"/>
  <rect x="298" y="148" width="80" height="18" fill="#f2f2f2"/>
  <rect x="298" y="346" width="80" height="18" fill="#f2f2f2"/>
  <path d="M316 157 Q400 157 400 256 Q400 355 316 355" fill="none" stroke="#f2f2f2" stroke-width="18"/>
  <!-- Red underline -->
  <rect x="176" y="382" width="160" height="10" rx="5" fill="#cc2200"/>
</svg>
